<svg xmlns="http://www.w3.org/2000/svg" style="display: none;"><symbol id="running" viewBox="0 0 512 512"><title>running</title><g> <path style="fill:#19CFFC;" d="M121,98.5H45c-8.291,0-15-6.709-15-15s6.709-15,15-15h76c8.291,0,15,6.709,15,15 S129.291,98.5,121,98.5z"/> <path style="fill:#19CFFC;" d="M121,218.5H45c-8.291,0-15-6.709-15-15s6.709-15,15-15h76c8.291,0,15,6.709,15,15 S129.291,218.5,121,218.5z"/> <path style="fill:#19CFFC;" d="M91,158.5H15c-8.291,0-15-6.709-15-15s6.709-15,15-15h76c8.291,0,15,6.709,15,15 S99.291,158.5,91,158.5z"/> </g><g> <path style="fill:#2864F0;" d="M280.141,51.039c-11.924-7.925-27.744-6.357-37.852,3.75l-82.5,82.5 c-11.719,11.719-11.719,30.703,0,42.422s30.703,11.719,42.422,0l65.112-65.112l46.593,33.563l63.724-29.623L280.141,51.039z"/> <path style="fill:#2864F0;" d="M219.789,242.289l-195,195c-11.719,11.719-11.719,30.703,0,42.422 c11.718,11.718,30.703,11.719,42.422,0L241,305.922L219.789,242.289z"/> </g><g> <path style="fill:#3389FF;" d="M482,203.5h-91v-60c0-11.793-7.134-22.955-18.536-27.684c-11.48-4.748-24.401-1.812-32.684,6.482 L219.789,242.289c-11.719,11.719-11.719,30.703,0,42.422l68.789,68.789l-83.789,83.789c-11.719,11.719-11.719,30.703,0,42.422 c11.718,11.718,30.703,11.719,42.422,0l105-105c11.719-11.719,11.719-30.703,0-42.422L283.422,263.5L331,215.922V233.5 c0,16.567,13.433,30,30,30h121c16.567,0,30-13.433,30-30S498.567,203.5,482,203.5z"/> <circle style="fill:#3389FF;" cx="436" cy="68.5" r="45"/> </g></symbol><symbol id="medical-history" viewBox="0 0 512 512"><title>medical-history</title><g> <g> <rect x="96" y="362.67" width="42.667" height="21.333"/> </g> </g><g> <g> <rect x="96" y="405.33" width="64" height="21.333"/> </g> </g><g> <g> <path d="M502.402,456.139l-118.4-118.414V74.667c0-17.673-14.327-32-32-32H137.6C132.658,18.323,111.137,0,85.335,0 S38.013,18.323,33.071,42.667h-1.069c-17.673,0-32,14.327-32,32V480c0,17.673,14.327,32,32,32h320c17.673,0,32-14.327,32-32 v-49.73l72.139,72.13c6.128,6.156,14.46,9.612,23.147,9.6c8.682-0.001,17.007-3.453,23.142-9.596 C515.198,489.621,515.186,468.907,502.402,456.139z M85.335,21.333c13.932,0,25.778,8.906,30.172,21.333H55.164 C59.557,30.239,71.403,21.333,85.335,21.333z M362.669,480c0,5.891-4.776,10.667-10.667,10.667h-320 c-5.891,0-10.667-4.776-10.667-10.667V74.667C21.335,68.776,26.111,64,32.002,64h85.333v117.333 c0,5.891-4.776,10.667-10.667,10.667c-5.891,0-10.667-4.776-10.667-10.667v-96H74.669v96c0,17.673,14.327,32,32,32 s32-14.327,32-32V64h213.333c5.891,0,10.667,4.776,10.667,10.667V316.39l-32-32.004V96c0-5.891-4.776-10.667-10.667-10.667h-160 v21.333h149.333V265.38l-59.232-29.55c-3.007-1.507-6.549-1.507-9.556,0c-0.572,0.286-1.099,0.625-1.595,0.994l-0.017-0.023 l-30.272,22.677l-17.067-59.733c-0.498-1.747-1.433-3.338-2.718-4.622c-4.167-4.165-10.92-4.163-15.085,0.003L144.919,224H64.002 c-5.891,0-10.667,4.776-10.667,10.667v224c0,5.891,4.776,10.667,10.667,10.667h256c5.891,0,10.667-4.776,10.667-10.667v-81.724 l32,31.996V480z M279.447,289.718l-10.282-20.545l20.551,10.276L279.447,289.718z M309.335,355.611V448H74.669V245.333h74.667 c2.822,0.002,5.53-1.114,7.531-3.104l19.2-19.2l16.341,57.227c0.358,1.256,0.943,2.437,1.727,3.481 c3.536,4.712,10.222,5.665,14.934,2.129l32.422-24.316l25.487,50.983l0.027-0.013c0.498,0.989,1.153,1.918,1.978,2.744 L309.335,355.611z M291.607,307.723l16.117-16.117l140.908,140.907l-16.117,16.117L291.607,307.723z M487.341,487.339 c-4.451,4.451-11.667,4.451-16.117,0L447.6,463.715l16.117-16.117l23.623,23.623C491.792,475.672,491.792,482.888,487.341,487.339 z"/> </g> </g></symbol><symbol id="fast-food" viewBox="0 0 496 496"><title>fast-food</title><path d="M472,272V168c0-13.232-10.768-24-24-24h-16c-6.168,0-11.744,2.408-16,6.24c-4.256-3.84-9.832-6.24-16-6.24h-16 c-6.168,0-11.744,2.408-16,6.24c-4.256-3.84-9.832-6.24-16-6.24h-16c-13.232,0-24,10.768-24,24v102.656 c-18.456-12.792-45.392-23.68-84.832-28.288l12.6-88.208c0.152-1.064,0.232-2.144,0.232-3.224 C240,138.288,229.712,128,217.064,128H144V56c0-4.408,3.592-8,8-8h64c13.232,0,24-10.768,24-24S229.232,0,216,0h-72 c-26.472,0-48,21.528-48,48v80H22.936C10.288,128,0,138.288,0,150.936c0,1.08,0.08,2.16,0.232,3.248l19.28,134.944 C0.496,311.776,0,334.112,0,336c0,13.952,9.024,25.712,21.496,30.088C18.032,371.2,16,377.368,16,384 c0,8.528,3.4,16.232,8.856,21.976C10.056,414.16,0,429.92,0,448c0,26.472,21.528,48,48,48h240h16h192V328v-8v-24 C496,282.768,485.232,272,472,272z M424,168c0-4.408,3.592-8,8-8h16c4.408,0,8,3.592,8,8v104h-32V168z M376,168 c0-4.408,3.592-8,8-8h16c4.408,0,8,3.592,8,8v104h-32V168z M328,168c0-4.408,3.592-8,8-8h16c4.408,0,8,3.592,8,8v104h-32V168z M200,16h16c4.408,0,8,3.592,8,8s-3.592,8-8,8h-16V16z M168,16h16v16h-16V16z M112,48c0-17.648,14.352-32,32-32h8v16 c-13.232,0-24,10.768-24,24v72h-16V48z M17.224,160l-1.152-8.056c-0.048-0.336-0.072-0.672-0.072-1.008 c0-3.824,3.112-6.936,6.936-6.936H96h48h73.064c3.824,0,6.936,3.112,6.936,6.936c0,0.336-0.024,0.672-0.064,0.984l-1.16,8.08H200 v16h20.488l-4.568,32H24.08l-4.568-32H184v-16H17.224z M213.64,224l-2.416,16.928C202.656,240.336,193.632,240,184,240h-16 c-69.712,0-110.432,16.232-134.296,35.352L26.368,224H213.64z M16,336c0-0.8,1.736-80,152-80h16c149.224,0,151.96,76.784,152,80 c0,8.824-7.176,16-16,16h-8h-8H48H32C23.176,352,16,344.824,16,336z M48,400c-8.824,0-16-7.176-16-16c0-8.824,7.176-16,16-16h256 c8.824,0,16,7.176,16,16c0,8.824-7.176,16-16,16H48z M270.608,416l-32.824,38.296L150.24,416H270.608z M304,480h-16H48 c-17.648,0-32-14.352-32-32s14.352-32,32-32h62.328l131.888,57.704L291.68,416H304c17.648,0,32,14.352,32,32S321.648,480,304,480 z M327.152,405.976C332.6,400.232,336,392.528,336,384c0-5.856-1.696-11.272-4.448-16H448v80h-96c0-5.616-1.024-10.984-2.8-16 H400v-16h-60.32C336.096,412.008,331.88,408.592,327.152,405.976z M480,320h-16v16h16v144H339.68 c4.152-4.624,7.408-10.032,9.52-16H464V352H347.552c2.752-4.728,4.448-10.144,4.448-16h96v-16h-98.712 c-2.6-8.896-7.736-20.44-17.752-32H472c4.408,0,8,3.584,8,8V320z"/><rect x="416" y="416" width="16" height="16"/><rect x="104" y="272" width="16" height="16"/><rect x="136" y="288" width="16" height="16"/><rect x="168" y="272" width="16" height="16"/><rect x="216" y="296" width="16" height="16"/><rect x="256" y="272" width="16" height="16"/><rect x="56" y="304" width="16" height="16"/></symbol><symbol id="weightlifting" viewBox="0 0 512 512"><title>weightlifting</title><g> <g> <path d="M495.841,101.383h-13.617c0-25.469,0-19.966,0-45.595c0-4.715-3.822-8.537-8.537-8.537h-23.323 c-4.715,0-8.537,3.822-8.537,8.537c0,25.63,0,20.123,0,45.595h-29.811c1.243-13.058-8.373-24.492-21.113-25.839 c-13.105-1.382-24.726,8.197-26.09,21.099l-0.501,4.739h-41.088c-12.121,26.171-38.282,43.068-67.261,43.068 c-29.378,0-55.317-17.281-67.261-43.068h-40.938l-0.501-4.739c-1.375-12.998-13.102-22.474-26.09-21.1 c-12.723,1.347-22.358,12.768-21.113,25.841H70.171c0-25.469,0-19.966,0-45.595c0-4.715-3.822-8.537-8.537-8.537H38.311 c-4.715,0-8.537,3.822-8.537,8.537c0,25.63,0,20.123,0,45.595H16.159C7.234,101.383,0,108.617,0,117.542 c0,8.924,7.234,16.159,16.159,16.159h13.616c0,25.469,0,19.966,0,45.595c0,4.715,3.823,8.537,8.537,8.537h23.323 c4.715,0,8.537-3.823,8.537-8.537c0-25.63,0-20.123,0-45.595h33.291c1.023,9.669,8.253,78.036,9.321,88.147 c2.145,20.289,27.705,28.867,41.462,13.117l33.346-38.161v90.784l-86.282,35.055c-10.072,4.092-17.246,13.183-18.886,23.93 L65.21,459.425c-2.57,16.845,9.002,32.582,25.846,35.151s32.582-9.002,35.151-25.846l14.572-95.523l79.818-32.429h70.854 l79.818,32.429l14.572,95.523c2.57,16.846,18.307,28.415,35.151,25.846c16.844-2.57,28.415-18.307,25.846-35.151l-17.215-112.853 c-1.64-10.747-8.814-19.837-18.886-23.93l-86.966-35.334V195.99l34.055,38.974c13.39,15.326,39.255,7.732,41.462-13.117 c1.067-10.094,8.302-78.495,9.323-88.147h33.217c0,25.469,0,19.966,0,45.595c0,4.715,3.823,8.537,8.537,8.537h23.323 c4.715,0,8.537-3.823,8.537-8.537c0-25.63,0-20.123,0-45.595h13.617c8.924,0,16.159-7.234,16.159-16.159 C512,108.617,504.766,101.383,495.841,101.383z M154.261,162.83c-1.279-12.098-1.815-17.155-3.081-29.13h28.534 C169.376,145.533,164.743,150.835,154.261,162.83z M357.812,162.83c-11.794-13.497,3.356,3.84-25.454-29.13h28.534 C358.5,156.32,359.089,150.748,357.812,162.83z"/> </g> </g><g> <g> <circle cx="255.963" cy="70.351" r="53.284"/> </g> </g></symbol><symbol id="home-icon-silhouette" viewBox="0 0 495.398 495.398"><title>home-icon-silhouette</title><path d="M487.083,225.514l-75.08-75.08V63.704c0-15.682-12.708-28.391-28.413-28.391c-15.669,0-28.377,12.709-28.377,28.391 v29.941L299.31,37.74c-27.639-27.624-75.694-27.575-103.27,0.05L8.312,225.514c-11.082,11.104-11.082,29.071,0,40.158 c11.087,11.101,29.089,11.101,40.172,0l187.71-187.729c6.115-6.083,16.893-6.083,22.976-0.018l187.742,187.747 c5.567,5.551,12.825,8.312,20.081,8.312c7.271,0,14.541-2.764,20.091-8.312C498.17,254.586,498.17,236.619,487.083,225.514z"/><path d="M257.561,131.836c-5.454-5.451-14.285-5.451-19.723,0L72.712,296.913c-2.607,2.606-4.085,6.164-4.085,9.877v120.401 c0,28.253,22.908,51.16,51.16,51.16h81.754v-126.61h92.299v126.61h81.755c28.251,0,51.159-22.907,51.159-51.159V306.79 c0-3.713-1.465-7.271-4.085-9.877L257.561,131.836z"/></symbol><symbol id="logout" viewBox="0 0 330 330"><title>logout</title><path id="XMLID_4_" d="M51.213,180h173.785c8.284,0,15-6.716,15-15s-6.716-15-15-15H51.213l19.394-19.393 c5.858-5.857,5.858-15.355,0-21.213c-5.856-5.858-15.354-5.858-21.213,0L4.397,154.391c-0.348,0.347-0.676,0.71-0.988,1.09 c-0.076,0.093-0.141,0.193-0.215,0.288c-0.229,0.291-0.454,0.583-0.66,0.891c-0.06,0.09-0.109,0.185-0.168,0.276 c-0.206,0.322-0.408,0.647-0.59,0.986c-0.035,0.067-0.064,0.138-0.099,0.205c-0.189,0.367-0.371,0.739-0.53,1.123 c-0.02,0.047-0.034,0.097-0.053,0.145c-0.163,0.404-0.314,0.813-0.442,1.234c-0.017,0.053-0.026,0.108-0.041,0.162 c-0.121,0.413-0.232,0.83-0.317,1.257c-0.025,0.127-0.036,0.258-0.059,0.386c-0.062,0.354-0.124,0.708-0.159,1.069 C0.025,163.998,0,164.498,0,165s0.025,1.002,0.076,1.498c0.035,0.366,0.099,0.723,0.16,1.08c0.022,0.124,0.033,0.251,0.058,0.374 c0.086,0.431,0.196,0.852,0.318,1.269c0.015,0.049,0.024,0.101,0.039,0.15c0.129,0.423,0.28,0.836,0.445,1.244 c0.018,0.044,0.031,0.091,0.05,0.135c0.16,0.387,0.343,0.761,0.534,1.13c0.033,0.065,0.061,0.133,0.095,0.198 c0.184,0.341,0.387,0.669,0.596,0.994c0.056,0.088,0.104,0.181,0.162,0.267c0.207,0.309,0.434,0.603,0.662,0.895 c0.073,0.094,0.138,0.193,0.213,0.285c0.313,0.379,0.641,0.743,0.988,1.09l44.997,44.997C52.322,223.536,56.161,225,60,225 s7.678-1.464,10.606-4.394c5.858-5.858,5.858-15.355,0-21.213L51.213,180z"/><path id="XMLID_5_" d="M207.299,42.299c-40.944,0-79.038,20.312-101.903,54.333c-4.62,6.875-2.792,16.195,4.083,20.816 c6.876,4.62,16.195,2.794,20.817-4.083c17.281-25.715,46.067-41.067,77.003-41.067C258.414,72.299,300,113.884,300,165 s-41.586,92.701-92.701,92.701c-30.845,0-59.584-15.283-76.878-40.881c-4.639-6.865-13.961-8.669-20.827-4.032 c-6.864,4.638-8.67,13.962-4.032,20.826c22.881,33.868,60.913,54.087,101.737,54.087C274.956,287.701,330,232.658,330,165 S274.956,42.299,207.299,42.299z"/></symbol></svg>